<svg width="81" height="91" viewBox="0 0 81 91" fill="none" xmlns="http://www.w3.org/2000/svg">
<path d="M32.311 54.4577H30.811V55.9577V83.3462H13.811V46.3283V44.8283H12.311H3.73705L40.311 5.20706L76.885 44.8283H68.311H66.811V46.3283V83.3462H49.811V55.9577V54.4577H48.311H32.311Z" fill="#1976D2" stroke="#1976D2" stroke-width="3"/>
<line y1="-2.5" x2="33.0811" y2="-2.5" transform="matrix(0.445104 -0.895479 0.897492 0.441031 9.41797 81.3121)" stroke="#FF0000" stroke-width="5"/>
<line y1="-2.5" x2="17.8698" y2="-2.5" transform="matrix(0.897492 0.441031 -0.445104 0.895479 17.4222 54.0568)" stroke="#FF0000" stroke-width="5"/>
<line y1="-2.5" x2="24.1746" y2="-2.5" transform="matrix(0.445104 -0.895479 0.897492 0.441031 35.2422 62.8137)" stroke="#FF0000" stroke-width="5"/>
<line y1="-2.5" x2="10.9204" y2="-2.5" transform="matrix(0.897492 0.441031 -0.445104 0.895479 41.459 39.1545)" stroke="#FF0000" stroke-width="5"/>
<path d="M69.4908 11.2648C69.0491 9.96 67.6284 9.26188 66.3177 9.70557L44.9571 16.9358C43.6463 17.3795 42.9417 18.7969 43.3834 20.1018C43.8251 21.4066 45.2457 22.1047 46.5565 21.6611L65.5437 15.2342L71.9414 34.1353C72.3831 35.4402 73.8037 36.1383 75.1145 35.6946C76.4253 35.2509 77.1299 33.8334 76.6882 32.5286L69.4908 11.2648ZM53.5039 45.0729L69.3611 13.1708L64.8736 10.9656L49.0165 42.8678L53.5039 45.0729Z" fill="#FF0000"/>
</svg>
